<?xml version="1.0" encoding="utf-8"?>
<!-- Generator: Adobe Illustrator 27.5.0, SVG Export Plug-In . SVG Version: 6.00 Build 0)  -->
<svg version="1.1" id="Layer_1" xmlns="http://www.w3.org/2000/svg" xmlns:xlink="http://www.w3.org/1999/xlink" x="0px" y="0px"
	 viewBox="0 0 2239 2000" style="enable-background:new 0 0 2239 2000;" xml:space="preserve">
<g>
	<rect x="0.001" y="-0.001" style="fill:#FFFFFF;" width="2239" height="2000"/>
	<path style="fill:#EAFCFC;" d="M266.122,1865.064c-132-219.176,182.431-340.052,34.815-557.52
		c-220.054-324.183-198-684.447,154.1-794.337c184.23-57.498,99.555-522.961,880.861-340.449
		c630.178,147.208,337.516,340.921,438.224,446.904c169.711,178.601,247.211,565.216,24.565,719.886
		c-275.321,191.262,151.435,375.564-20.565,525.516C1050.122,1865.064,266.122,1865.064,266.122,1865.064z"/>
	<g>
		<g>
			<path style="fill:#F48C7F;" d="M902.572,1342.811c1.456-2.197-2.108-5.98-4.781-8.818c-2.962-3.145-20.995-11.136-24.065-12.105
				c-3.07-0.969-29.49,2.508-39.622,5.725c-10.132,3.216-16.773,1.795-16.773,1.795c-2.644-0.565-6.619-1.327-9.705-1.996
				l-3.725,23.515c23.714-0.081,45.667,1.896,47.914,1.86c7.127-0.113,20.247-7.451,23.285-8.518
				c3.038-1.067,9.162-0.146,13.267,1.824c4.104,1.972,16.065,6.674,18.084,5.623
				C908.473,1350.665,902.572,1342.811,902.572,1342.811z"/>
		</g>
		<path style="fill:#F48C7F;" d="M839.935,1326.094l-133.319-33.449c0,0-29.292-56.005-72.268-116.199
			c-14.052,13.908-21.861,35.275-36.012,49.047l74.585,101.483c3.785,4.187,169.531,22.414,169.531,22.414L839.935,1326.094z"/>
		<path style="fill:#B75742;" d="M644.144,1281.601c0,0-38.346-51.227-52.349-75.469c-14.003-24.242,9.535-8.461,33.579-14.838
			c9.105-2.416,1.558-52.129,18.771-34.785c28.238,28.453,56.547,90.094,56.547,90.094L644.144,1281.601z"/>
		<path style="fill:#B5CFF7;" d="M757.937,506.571h418.178c20.393,0,36.924,16.587,36.924,37.049v244.461
			c0,20.462-16.531,37.05-36.924,37.05H883.51c-18.811,26.338-52.918,73.505-55.928,73.505c-2.819,0,2.608-44.55,6.433-73.505
			h-76.078c-20.393,0-36.924-16.588-36.924-37.05V543.62C721.013,523.158,737.544,506.571,757.937,506.571z"/>
		<path style="fill:#F7A491;" d="M695.868,1805.91c0,0-2.034,33.671-2.045,33.74c-0.748,4.274-3.692,14.836-3.692,18.723
			c0,14.6,69.325-12.394,53.788-18.863c-1.407-0.586-8.773-5.015-9.236-9.983c-0.713-7.656-2.521-23.143-2.521-23.143
			L695.868,1805.91z"/>
		<path style="fill:#B75742;" d="M741.004,1836.629c0,0-16.275,4.467-24.612,5.583c-8.336,1.116-19.327-8.284-25.223-5.745
			c-6.49,2.795-6.235,27.953-6.235,27.953s87.282,7.161,111.825-0.247C806.482,1861.238,774.278,1847.031,741.004,1836.629z"/>
		<path style="fill:#F7A491;" d="M813.553,1805.91c0,0-2.034,33.671-2.046,33.74c-0.748,4.274-3.692,14.836-3.692,18.723
			c0,14.6,69.325-12.394,53.789-18.863c-1.407-0.586-11.903-2.443-12.365-7.412c-0.713-7.655-2.043-31.33-2.043-31.33
			L813.553,1805.91z"/>
		<path style="fill:#B75742;" d="M858.689,1836.629c0,0-16.276,4.467-24.612,5.583c-8.336,1.116-19.327-8.284-25.223-5.745
			c-6.49,2.795-6.235,27.953-6.235,27.953s87.282,7.161,111.825-0.247C924.167,1861.238,891.963,1847.031,858.689,1836.629z"/>
		<path style="fill:#3C8F7C;" d="M590.233,1444.722l165.712,0.715c0,0,74.854-1.962,86.688,23.923
			c11.834,25.886,9.02,354.634,9.02,354.634s-39.955,5.943-42.001,3.748l-44.989-196.822c-4.813-16.683-6.45-34.12-4.827-51.407
			l4.297-45.777l-68.376,3.494c0,0-77.519-1.232-103.075-26.942C567.127,1484.574,590.233,1444.722,590.233,1444.722z"/>
		<path style="fill:#50BFA5;" d="M477.9,1426.447l178.179,10.932c0,0,76.682,6.229,88.516,32.114
			c11.834,25.886-7.552,357.456-7.552,357.456s-44.481,2.742-44.391,0.792c0.107-2.321-18.255-151.879-28.44-199.241
			c-3.232-15.031-4.364-30.434-3.365-45.775l6.435-53.08c0,0-165.503-0.941-173.718-9.205
			C468.008,1494.729,477.9,1426.447,477.9,1426.447z"/>
		<path style="fill:#F47458;" d="M640.002,1153.111c-24.802-7.518-71.268-11.451-71.268-11.451s-29.127-4.736-38.592-2.687
			c-13.931,3.017-40.084,4.396-42.518,64.862c-1.742,43.269-6.668,150.322-11.607,222.611l177.352,10.765
			C645.344,1325.988,663.483,1160.229,640.002,1153.111z"/>
		<path style="fill:#F7A491;" d="M592.981,1089.99l-27.855,51.223c0,0,20.983,37.398,40.83,38.396
			c16.653,0.839,14.037-23.782,14.037-23.782s2.619-31.832,10.613-46.092C638.6,1095.475,592.981,1089.99,592.981,1089.99z"/>
		<path style="fill:#F47458;" d="M595.521,1110.503c6.25,6.667,16.697,15.457,28.02,21.05c1.647-7.992,3.94-16.245,7.064-21.818
			c3.688-6.58-4.044-11.289-13.439-14.455c-12.586-3.345-24.186-5.289-24.186-5.289l-5.354,9.844
			C588.989,1103.288,593.44,1108.283,595.521,1110.503z"/>
		<g>
			<path style="fill:#F7A491;" d="M607.292,1003.701c-1.148-0.82-28.623,63.215-16.705,86.254
				c11.918,23.037,43.394,38.25,59.294,27.141c17.586-12.288,36.82-83.975,15.611-110.164
				C644.283,980.743,607.292,1003.701,607.292,1003.701z"/>
			<path style="fill:#F7CC7F;" d="M665.326,968.542c-21.602-1.52-38.321,7.289-44.667,11.26c-9.586-1.486-23.631,0.134-42.66,18.08
				c-23.398,22.066-19.745,54.743-5.108,74.348c14.636,19.606,9.743,36.188,9.743,36.188l5.345-7.794
				c3.991-5.92,6.805-12.592,7.981-19.64c0.706-4.229,1.061-8.914,0.377-13.038c-1.806-10.877,14.093-13.345,20.281-20.254
				c4.764-5.32,8.838-19.391,16.478-28.25l7.901-6.188c0,0,16.098-6.615,28.235-0.107
				C681.371,1019.654,693.043,970.491,665.326,968.542z"/>
			<path style="fill:#F7A491;" d="M612.454,1059.289c-2.124,8.154-7.662,13.774-12.371,12.549
				c-4.709-1.225-6.805-8.826-4.682-16.981c2.124-8.155,7.662-13.772,12.371-12.549
				C612.482,1043.531,614.577,1051.135,612.454,1059.289z"/>
		</g>
		<path style="fill:#FFFFFF;" d="M634.86,1085.73l26.011,5.807c0,0-2.805,9.744-14.317,7.521
			C632.517,1096.348,634.86,1085.73,634.86,1085.73z"/>
		<g>
			<path style="fill:#ADAEB5;" d="M1001.586,748.563c0,12.784-16.733,23.146-37.374,23.146c-20.642,0-37.374-10.363-37.374-23.146
				c0-12.783,16.733-23.146,37.374-23.146C984.853,725.417,1001.586,735.779,1001.586,748.563z"/>
			<path style="fill:#F7CC7F;" d="M964.211,256.757c-93.061,0-168.503,75.442-168.503,168.503
				c0,50.848,22.523,96.434,58.136,127.329c0.125,0.134,26.323,28.449,30.643,58.103l0.784,18.151
				c0.257,5.951,2.592,11.625,6.599,16.032c0.355,0.391,0.724,0.765,1.1,1.131h142.481c0.377-0.366,0.746-0.74,1.101-1.131
				c4.007-4.408,6.342-10.081,6.599-16.032l0.784-18.151c4.32-29.654,30.519-57.969,30.644-58.103
				c35.612-30.896,58.136-76.481,58.136-127.329C1132.715,332.199,1057.274,256.757,964.211,256.757z"/>
			<path style="fill:#544C60;" d="M970.987,751.15h-13.551c-35.8,0-64.823-29.023-64.823-64.823v-40.32h143.196v40.32
				C1035.81,722.127,1006.788,751.15,970.987,751.15z"/>
			<path style="opacity:0.3;fill:#EAB054;" d="M1006.453,554.093c-93.114,0-168.597-75.484-168.597-168.597
				c0-37.806,12.444-72.705,33.458-100.825c-45.555,30.162-75.605,81.863-75.605,140.59c0,50.848,22.523,96.434,58.136,127.329
				c0.125,0.134,26.323,28.449,30.643,58.103l0.784,18.151c0.257,5.951,2.592,11.625,6.599,16.032
				c0.355,0.391,0.724,0.765,1.1,1.131h142.481c0.377-0.366,0.746-0.74,1.101-1.131c4.007-4.408,6.342-10.081,6.599-16.032
				l0.784-18.151c4.32-29.654,30.519-57.969,30.644-58.103c9.009-7.816,17.177-16.575,24.358-26.119
				C1072.382,543.927,1040.606,554.093,1006.453,554.093z"/>
			<g>
				<polygon style="fill:#FFFFFF;" points="963.025,506.982 929.546,360.947 900.162,445.887 891.544,442.906 931.327,327.907 
					965.488,476.916 1000.479,391.5 1032.888,446.215 1025.042,450.863 1001.972,411.913 				"/>
			</g>
			<g>
				<path style="fill:#544C60;" d="M920.825,667.961l-0.804,0.083c-4.231,0.438-8.016-2.636-8.454-6.867l-23.415-226.111
					c-0.438-4.23,2.637-8.016,6.867-8.453l0.804-0.084c4.231-0.438,8.016,2.636,8.454,6.867l23.415,226.11
					C928.131,663.739,925.056,667.523,920.825,667.961z"/>
				<path style="fill:#544C60;" d="M1008.09,668.003L1008.09,668.003c4.453,0.461,8.437-2.775,8.898-7.228l23.332-225.306
					c0.461-4.453-2.775-8.436-7.228-8.898l0,0c-4.453-0.461-8.437,2.774-8.897,7.228l-23.332,225.307
					C1000.401,663.559,1003.637,667.542,1008.09,668.003z"/>
			</g>
			<path style="fill:#ADAEB5;" d="M1034.759,661.857H893.755c-3.963,0-7.176-3.212-7.176-7.176v-1.5
				c0-3.963,3.213-7.175,7.176-7.175h141.004c3.963,0,7.176,3.212,7.176,7.175v1.5
				C1041.934,658.645,1038.722,661.857,1034.759,661.857z"/>
			<path style="fill:#ADAEB5;" d="M1034.759,693.637H893.755c-3.963,0-7.176-3.212-7.176-7.175v-1.5
				c0-3.963,3.213-7.176,7.176-7.176h141.004c3.963,0,7.176,3.213,7.176,7.176v1.5
				C1041.934,690.425,1038.722,693.637,1034.759,693.637z"/>
			<path style="fill:#ADAEB5;" d="M1026.505,729.199H902.008c-3.963,0-7.176-3.212-7.176-7.175v-1.5
				c0-3.963,3.213-7.176,7.176-7.176h124.498c3.963,0,7.175,3.212,7.175,7.176v1.5
				C1033.681,725.987,1030.469,729.199,1026.505,729.199z"/>
		</g>
		<path style="fill:#F7A491;" d="M771.706,1328.67l-136.992-36.236c0,0-41.934-47.402-81.346-101.951
			c-14.082,11.642-20.075,42.383-34.237,53.893l90.455,90.031c3.139,4.167,155.178,14.937,155.178,14.937L771.706,1328.67z"/>
		<path style="fill:#B75742;" d="M550.416,1290.575c0,0-46.573-59.181-57.945-82.42c-11.372-23.239,0.783-60.026,23.356-64.38
			c22.573-4.354,87.94,101.811,87.94,101.811L550.416,1290.575z"/>
		<g>
			<path style="fill:#F7A491;" d="M856.625,1347.301c1.463-1.947-1.616-5.635-3.926-8.398c-2.56-3.064-18.756-11.429-21.535-12.492
				c-2.779-1.063-27.344,0.692-36.868,3.102c-9.524,2.411-15.573,0.734-15.573,0.734c-2.408-0.668-6.033-1.588-8.843-2.375
				l-7.335,21.319c21.882,1.229,44.63,4.43,46.706,4.521c6.581,0.287,19.088-5.76,21.949-6.577
				c2.861-0.817,8.461,0.369,12.139,2.413c3.678,2.044,14.454,7.04,16.375,6.182
				C861.637,1354.871,856.625,1347.301,856.625,1347.301z"/>
		</g>
		<g>
			<rect x="541.754" y="1579.029" style="fill:#13375B;" width="17.461" height="255.348"/>
			<path style="fill:#13375B;" d="M462.243,1845.762h173.492c7.991,0,14.469,6.479,14.469,14.469v0.001
				c0,1.397-1.133,2.53-2.53,2.53h-197.37c-1.397,0-2.53-1.133-2.53-2.531l0,0C447.774,1852.24,454.252,1845.762,462.243,1845.762z"
				/>
			<path style="fill:#13375B;" d="M540.393,1834.377h21.252c6.288,0,11.385,5.098,11.385,11.385l0,0
				c0,6.289-5.097,11.386-11.385,11.386h-21.252c-6.288,0-11.385-5.097-11.385-11.386l0,0
				C529.007,1839.475,534.104,1834.377,540.393,1834.377z"/>
			<path style="fill:#355389;" d="M662.889,1549.638l-11.938-49.693c-8.348-34.755-39.124-60.04-74.841-61.484l-151.197-6.111
				l-4.666-15.393l156.477,6.325c42.475,1.719,79.072,31.785,89,73.115l12.685,52.805
				C674.112,1549.383,668.873,1549.527,662.889,1549.638z"/>
			<path style="fill:#F7CC7F;" d="M460.084,1523.17c0,0,207.728,3.555,229.385,0c21.657-3.556,31.03,23.596,24.565,37.817
				c-6.464,14.223-24.242,19.717-50.424,21.01c-26.181,1.293-244.037,7.435-250.179,1.616c-5.017-4.752-71.06-230.54-95.09-313.111
				c-4.803-16.502,4.669-33.748,21.162-38.588l0,0c16.416-4.818,33.647,4.494,38.61,20.867L460.084,1523.17z"/>
		</g>
		<g>
			<path style="fill:#86B1F2;" d="M1116.182,1211.18H942.887c-4.586,0-8.716,2.771-10.455,7.014l-53.359,130.141h-95.538
				c-2.672,0-4.837,2.163-4.837,4.832l0,0c0,2.67,2.166,4.835,4.837,4.835h271.911c7.475,0,14.255-4.389,17.316-11.208
				l53.729-119.686C1129.847,1219.631,1124.377,1211.18,1116.182,1211.18z"/>
			<path style="fill:#FFFFFF;" d="M1022.879,1286.962c-1.17,5.846-6.269,9.755-11.389,8.731c-5.119-1.024-8.32-6.593-7.149-12.438
				c1.17-5.845,6.269-9.755,11.389-8.73C1020.849,1275.548,1024.05,1281.116,1022.879,1286.962z"/>
		</g>
		<g>
			<path style="fill:#13375B;" d="M754.695,1387.056h678.155c2.349,0,4.252-1.903,4.252-4.251v-20.553
				c0-2.348-1.903-4.251-4.252-4.251H754.695c-2.348,0-4.251,1.903-4.251,4.251v20.553
				C750.443,1385.152,752.347,1387.056,754.695,1387.056z"/>
			<polygon style="fill:#13375B;" points="1372.652,1865.064 1393.331,1865.064 1348.777,1387.056 1328.1,1387.056 			"/>
			<polygon style="fill:#13375B;" points="1196.949,1865.064 1176.271,1865.064 1220.824,1387.056 1241.503,1387.056 			"/>
			<polygon style="fill:#13375B;" points="978.963,1865.064 999.641,1865.064 955.088,1387.056 934.41,1387.056 			"/>
			<polygon style="fill:#13375B;" points="803.26,1865.064 782.582,1865.064 827.135,1387.056 847.813,1387.056 			"/>
		</g>
	</g>
	<path style="fill:#3C8F7C;" d="M1854.224,1869.378H194.66c-1.989,0-3.602-1.613-3.602-3.603v-1.81c0-1.989,1.613-3.603,3.602-3.603
		h1659.564c1.989,0,3.602,1.613,3.602,3.603v1.81C1857.826,1867.765,1856.213,1869.378,1854.224,1869.378z"/>
	<g>
		<path style="fill:#F47458;" d="M1855.673,371.239c5.763,5.143,12.502,10.227,17.046,7.223c4.545-3.004,1.382-15.028-0.878-17.504
			C1869.581,358.482,1855.673,371.239,1855.673,371.239z"/>
		<path style="fill:#F47458;" d="M1882.503,361.747c6.283,6.615,13.466,12.727,19.633,8.215c4.689-3.43,0.628-19.458-2.052-18.553
			C1897.403,352.314,1882.503,361.747,1882.503,361.747z"/>
		<path style="fill:#C9A87F;" d="M1783.631,358.872c4.802,4.72,48.545,34.624,55.892,31.292c7.898-3.582,6.785-19.043-3.379-31.732
			c27.715,21.838,31.874,22.224,36.729,16.886c4.194-4.611-0.783-19.827-4.415-23.825c18.161,13.813,25.926,21.693,32.087,17.815
			c6.246-3.932,5.926-23.858-8.365-39.775C1878.24,314.007,1774.446,349.843,1783.631,358.872z"/>
		<path style="fill:#E3BE91;" d="M1981.833,286.048c-18.213,13.129-20.517,33.949-77.688,57.251
			c-57.172,23.303-104.193-9.116-137.574-0.705c-32.451,8.177-3.608,57.582-39.336,68.294c-13.874,4.159-15.151-5.57-14.856-16.616
			c0.295-11.045-2.462-52.174,0.034-68.761c2.497-16.587,47.94-81.351,71.258-109.597c29.604-35.86,135.173-0.263,172.896-14.121
			c31.126-11.434,67.569-32.489,67.569-32.489s18.51,61.694,36.741,78.922C2036.169,254.395,2005.019,269.336,1981.833,286.048z"/>
		<path style="fill:#C9A87F;" d="M1804.644,279.137c-14.48,32.917-44.92,53.867-51.243,59.387c0,0,0.063-0.007,0.161-0.019
			c-2.575,1.216-4.854,1.545-7.14,3.01c-21.521,13.781-11.699,35.704,1.423,38.754c1.681-16.472,3.291-32.206,18.726-37.675
			c1.681-0.595,3.435-1.051,5.254-1.396c2.859-0.67,5.884-1.043,9.078-1.148c7.992-3.233,9.519-5.595,7.242-6.871
			c10.962-2.081,22.909-4.771,33.285-8.083c28.197-9,45.287-43.344,45.574-51.625
			C1867.172,268.631,1846.108,287.43,1804.644,279.137z"/>
		<g>
			<path style="fill:#3C8F7C;" d="M1762.971,158.415c17.198,133.332,60.04,261.096,126.27,376.564
				c-49.811,29.15-99.622,58.301-149.434,87.451c-76.576-133.506-126.112-281.23-145.997-435.391
				C1650.197,177.496,1706.584,167.956,1762.971,158.415z"/>
			<path style="fill:#96D9C9;" d="M1856.734,543.623c-31.229,17.947-62.458,35.897-93.687,53.844
				c-6.865-12.201-21.403-17.212-32.803-11.021c-60.561-113.619-101.882-236.847-122.41-365.052
				c12.617-2.559,20.994-15.919,19.073-29.921c35.156-6.238,70.312-12.477,105.468-18.714c1.77,12.885,13.692,21.195,26.301,18.637
				c18.026,112.582,54.313,220.795,107.494,320.57C1854.779,518.151,1850.418,532.394,1856.734,543.623z"/>
			<g>
				<path style="fill:#50BFA5;" d="M1703.418,316.163c31.381-9.039,63.27,8.887,73.246,39.351
					c9.903,30.49-4.88,65.012-35.018,77.857c-30.082,12.83-65.338-3.89-76.503-38.185
					C1653.942,360.903,1672.092,325.177,1703.418,316.163z"/>
				<path style="fill:#3C8F7C;" d="M1767.941,361.985c-3.308,1.286-6.614,2.572-9.921,3.86c1.435,4.635,2.231,9.427,2.425,13.576
					c0.161,3.46-2.315,6.508-5.684,6.956c-0.136,0.018-0.271,0.036-0.406,0.053c-3.712,0.493-7.047-2.386-7.172-6.249
					c-0.129-3.931-0.774-8.204-2.271-12.41c-2.179-6.123-5.925-9.469-10.121-7.894c-3.978,1.499-5.319,5.935-5.057,15.018
					c0.406,13.114-1.729,23.175-11.789,27.323c-9.107,3.761-18.921-0.17-25.45-11.379c-3.303,1.296-6.605,2.594-9.908,3.893
					c-1.332-3.711-2.645-7.431-3.938-11.157c3.069-1.173,6.139-2.346,9.21-3.518c-1.257-4.18-1.898-7.764-2.151-10.86
					c-0.311-3.788,2.316-7.054,5.83-7.344l0,0c3.635-0.297,6.821,2.655,7.048,6.532c0.169,2.909,0.707,6.387,2.091,10.338
					c2.557,7.275,6.34,8.456,9.253,7.307c3.449-1.355,4.205-6.09,4.292-16.764c-0.138-14.84,4-22.231,13.468-25.633
					c9.395-3.36,19.576,0.602,25.915,12.06c3.563-1.348,7.125-2.695,10.688-4.041
					C1765.489,355.104,1766.706,358.548,1767.941,361.985z"/>
				<path style="fill:#50BFA5;" d="M1751.133,448.886c11.758,28.778,24.742,57.048,38.929,84.731
					c-4.929,2.607-9.857,5.214-14.784,7.82c-14.384-28.073-27.551-56.737-39.473-85.918
					C1740.914,453.309,1746.024,451.097,1751.133,448.886z"/>
				<path style="fill:#50BFA5;" d="M1683.442,207.558c4.994,30.98,11.281,61.65,18.837,91.935
					c-5.338,1.514-10.675,3.027-16.012,4.541c-7.662-30.71-14.037-61.808-19.101-93.221
					C1672.592,209.727,1678.018,208.643,1683.442,207.558z"/>
			</g>
		</g>
		<g>
			<path style="fill:#3C8F7C;" d="M1534.67,277.379c105.889,66.927,225.469,111.307,352.443,130.802
				c-13.658,54.773-27.316,109.545-40.974,164.317c-146.81-22.54-285.073-73.854-407.504-151.236
				C1470.646,373.301,1502.658,325.341,1534.67,277.379z"/>
			<path style="fill:#96D9C9;" d="M1870.879,437.712c-8.794,34.143-17.589,68.286-26.382,102.429
				c-13.326-2.159-26.851,5.734-30.315,17.981c-121.774-22.635-237.11-65.439-341.669-126.803
				c6.863-10.985,3.193-25.26-8.006-32.202c19.754-30.076,39.508-60.151,59.263-90.227c10.307,6.388,24.362,2.427,31.22-8.551
				c91.819,53.886,193.1,91.475,300.037,111.353C1851.563,423.93,1858.616,435.724,1870.879,437.712z"/>
			<g>
				<path style="fill:#50BFA5;" d="M1605.051,416.43c15.184-28.923,49.742-42.086,78.091-31.326
					c28.317,10.831,42.517,42.573,30.87,72.845c-11.617,30.22-47.638,46.627-79.506,34.464
					C1602.622,480.284,1589.888,445.299,1605.051,416.43z"/>
				<path style="fill:#3C8F7C;" d="M1681.714,395.515c-1.365,3.248-2.729,6.496-4.093,9.744c4.257,1.699,8.185,3.97,11.245,6.31
					c2.552,1.95,3.001,5.63,1.001,8.422c-0.08,0.112-0.161,0.225-0.241,0.337c-2.202,3.076-6.524,3.851-9.336,1.633
					c-2.862-2.257-6.32-4.33-10.317-5.727c-5.816-2.033-10.751-1.229-12.523,2.858c-1.676,3.877,0.532,7.539,7.122,12.779
					c9.531,7.545,15.163,15.168,11.178,25.189c-3.606,9.076-13.121,14.076-25.515,12.258c-1.355,3.251-2.709,6.503-4.063,9.754
					c-3.533-1.224-7.059-2.466-10.578-3.728c1.282-3.002,2.565-6.004,3.848-9.007c-3.813-1.56-6.783-3.226-9.142-4.888
					c-2.887-2.036-3.385-5.96-1.175-8.765l0,0c2.287-2.902,6.56-3.522,9.45-1.371c2.169,1.614,4.992,3.293,8.73,4.621
					c6.89,2.44,10.322,0.313,11.514-2.56c1.414-3.396-1.408-6.795-8.879-13.25c-10.566-8.779-12.937-16.305-8.832-25.435
					c4.085-9.05,13.875-14.308,26.316-12.197c1.497-3.476,2.994-6.952,4.492-10.428
					C1675.175,393.231,1678.441,394.383,1681.714,395.515z"/>
				<path style="fill:#50BFA5;" d="M1731.479,460.128c28.383,8.417,57.25,15.61,86.53,21.553
					c-1.548,5.254-3.095,10.505-4.642,15.758c-29.689-6.026-58.961-13.32-87.741-21.854
					C1727.577,470.432,1729.527,465.28,1731.479,460.128z"/>
				<path style="fill:#50BFA5;" d="M1514.7,366.386c25.289,14.802,51.248,28.451,77.807,40.918c-2.6,4.906-5.198,9.811-7.798,14.716
					c-26.931-12.642-53.254-26.481-78.896-41.491C1508.775,375.815,1511.737,371.1,1514.7,366.386z"/>
			</g>
		</g>
		<g>
			<path style="fill:#3C8F7C;" d="M1736.672,169.655c43.251,120.212,110.872,230.154,199.301,324.032
				c-43.738,36.955-87.475,73.909-131.212,110.863c-102.243-108.546-180.428-235.663-230.436-374.655
				C1628.441,209.815,1682.557,189.735,1736.672,169.655z"/>
			<path style="fill:#96D9C9;" d="M1905.393,508.18c-27.484,22.865-54.97,45.729-82.455,68.594
				c-9.212-9.946-24.631-11.697-34.734-3.686c-82.438-93.294-147.657-199.333-193.207-314.126
				c12.025-4.887,17.721-18.945,13.064-31.546c33.683-12.788,67.366-25.576,101.049-38.364
				c4.286,11.597,17.758,16.927,29.774,12.042c40,100.808,97.272,193.924,169.666,275.851
				C1898.451,484.95,1896.917,499.027,1905.393,508.18z"/>
			<g>
				<path style="fill:#50BFA5;" d="M1708.507,327.799c29.385-14.634,64.567-4.363,80.454,21.899
					c15.819,26.3,7.917,61.258-19.488,79.173c-27.352,17.89-65.64,9.408-83.458-20.169
					C1668.163,379.143,1679.172,342.398,1708.507,327.799z"/>
				<path style="fill:#3C8F7C;" d="M1781.569,357.436c-3.032,1.852-6.063,3.703-9.093,5.556c2.335,4.013,4.066,8.297,5.073,12.105
					c0.839,3.177-1.023,6.497-4.279,7.583c-0.131,0.043-0.263,0.087-0.393,0.13c-3.589,1.196-7.465-0.809-8.348-4.366
					c-0.899-3.62-2.38-7.454-4.692-11.055c-3.364-5.244-7.741-7.601-11.599-5.304c-3.655,2.182-4.117,6.563-2.073,14.934
					c2.977,12.079,2.833,21.835-6.341,27.685c-8.307,5.303-18.822,3.612-27.505-5.48c-3.025,1.861-6.051,3.721-9.074,5.583
					c-2.052-3.176-4.084-6.364-6.1-9.563c2.818-1.699,5.636-3.397,8.455-5.096c-2.069-3.626-3.41-6.822-4.27-9.642
					c-1.052-3.452,0.916-7.003,4.349-7.972l0,0c3.551-1,7.294,1.103,8.279,4.653c0.739,2.664,1.957,5.782,4.107,9.169
					c3.966,6.237,7.955,6.579,10.622,4.932c3.16-1.943,2.98-6.484,0.971-16.399c-3.051-13.734-0.393-21.412,8.341-26.453
					c8.669-4.987,19.556-3.342,28.1,6.021c3.272-1.96,6.546-3.919,9.819-5.877C1777.785,351.543,1779.669,354.496,1781.569,357.436z
					"/>
				<path style="fill:#50BFA5;" d="M1781.939,441.368c17.324,24.344,35.766,47.971,55.286,70.817
					c-4.381,3.399-8.763,6.798-13.143,10.196c-19.794-23.166-38.494-47.124-56.061-71.809
					C1772.661,447.504,1777.3,444.435,1781.939,441.368z"/>
				<path style="fill:#50BFA5;" d="M1667.354,231.069c11.04,27.732,23.303,54.92,36.75,81.498c-5.002,2.467-10.005,4.934-15.007,7.4
					c-13.637-26.95-26.071-54.518-37.266-82.639C1657.005,235.242,1662.179,233.155,1667.354,231.069z"/>
			</g>
		</g>
		<path style="fill:#E3BE91;" d="M1965.725,301.198c-20.535,25.139-54.359,42.661-100.695,49.699
			c-43.909,6.669-66.645,13.193-99.36,23.468c-23.426,7.357-39.351-10.647-15.713-27.404c20.876-14.8,78.927-32.912,95.048-68.512
			c13.47-29.743,61.416-61.297,91.126-44.672C1964.516,249.66,1989.105,272.576,1965.725,301.198z"/>
		<path style="fill:#F47458;" d="M1735.805,369.975c-3.211-5.055-1.438-12.763,11.279-18.593c5.836-2.675,14.079-3.635,17.486,3.88
			c2.874,6.342-0.713,12.29-7.269,16.037C1750.745,375.045,1739.143,375.231,1735.805,369.975z"/>
		<path style="fill:#B75742;" d="M2054.326,282.928c-10.412,5.142-76.68-98.025-62.492-106.434
			C2131.606,93.655,2239,28.26,2239,28.26v163.75C2239,192.009,2168.35,226.616,2054.326,282.928z"/>
	</g>
	<g>
		<path style="fill:#F28383;" d="M1836.396,1452.029c-4.305,4.965-9.076,10.131-13.431,9.789
			c-4.355-0.343-1.224-16.186-0.775-17.268C1822.639,1443.468,1836.396,1452.029,1836.396,1452.029z"/>
		<path style="fill:#F28383;" d="M1810.094,1438.676c-4.014,6.439-8.745,9.943-13.856,8.38c-5.11-1.564,2.707-16.865,3.938-17.209
			C1801.405,1429.503,1810.094,1438.676,1810.094,1438.676z"/>
		<path style="fill:#C9A87F;" d="M1758.867,1373.887c-0.155,6.175,7.213,54.231,14.05,57.067c7.35,3.049,17.015-7.386,19.15-22.149
			c2.524,33.771,3.039,36.484,9.605,35.642c10.076-1.292,14.89-13.392,15.294-18.332c2.122,20.827,4.233,32.813,8.166,32.668
			c9.631-0.355,25.782-11.891,21.416-30.53C1842.183,1409.613,1759.163,1362.072,1758.867,1373.887z"/>
		<path style="fill:#E3BE91;" d="M1931.871,1461.093c-20.121-4.418-35.609,7.521-87.052-16.193
			c-51.443-23.716-59.18-75.545-85.733-92.646c-25.815-16.626-40.855,33.663-70.421,16.429c-11.48-6.691-5.76-13.644,1.827-20.367
			c7.588-6.724,33.425-34.344,46.107-43.064c12.682-8.721,84.563-18.846,118.104-20.916c42.585-2.63,84.878,90.43,117.803,107.029
			c27.168,13.697,196.866,73.756,196.866,73.756s-0.743,132.15-53.791,106.262
			C2095.965,1558.686,1946.36,1464.274,1931.871,1461.093z"/>
		<path style="fill:#C9A87F;" d="M1822.192,1334.36c-31.137,10.921-60.968,7.294-68.63,6.515c0,0,0.044,0.038,0.113,0.097
			c-2.429-0.964-4.077-2.284-6.49-2.9c-22.723-5.787-31.262,14.531-25.083,25.238c12.093-9.195,23.646-17.976,36.984-11.058
			c1.452,0.753,2.857,1.644,4.227,2.646c2.241,1.496,4.387,3.29,6.458,5.364c7.175,3.331,9.715,2.874,9.144,0.549
			c8.263,6.043,17.553,12.364,26.273,17.243c23.7,13.26,57.428,3.193,63.158-1.804
			C1871.696,1373.33,1842.615,1367.347,1822.192,1334.36z"/>
		<g>
			<path style="fill:#3C8F7C;" d="M1686.146,1546.981c-3.351-114.885-30.877-228.631-81.131-335.247
				c48.682-17.684,97.362-35.367,146.043-53.051c58.104,123.272,89.932,254.789,93.806,387.621
				C1791.959,1546.53,1739.053,1546.756,1686.146,1546.981z"/>
			<path style="fill:#96D9C9;" d="M1635.811,1208.951c30.489-10.81,60.979-21.621,91.469-32.432
				c5.188,11.248,18.127,17.492,29.223,13.852c45.197,104.27,71.747,213.979,78.649,324.999c-11.877,0.408-20.858,10.518-20.4,22.6
				c-33.013,0.385-66.025,0.77-99.038,1.154c-0.423-11.118-10.642-19.784-22.511-19.374
				c-6.061-97.494-29.376-193.833-69.066-285.399C1635.223,1230.714,1640.582,1219.301,1635.811,1208.951z"/>
			<g>
				<path style="fill:#50BFA5;" d="M1755.881,1422.146c-29.793,3.272-57.524-16.278-63.868-43.366
					c-6.273-27.101,10.603-54.178,39.608-60.832c28.951-6.651,59.901,12.349,66.981,42.834
					C1805.717,1391.262,1785.622,1418.886,1755.881,1422.146z"/>
				<path style="fill:#3C8F7C;" d="M1700.667,1374.529c3.171-0.626,6.342-1.253,9.513-1.881c-0.889-4.11-1.174-8.263-0.963-11.791
					c0.176-2.941,2.747-5.17,5.896-5.08c0.126,0.004,0.253,0.008,0.38,0.012c3.47,0.1,6.275,2.99,6.028,6.268
					c-0.251,3.335-0.056,7.029,0.931,10.786c1.435,5.468,4.575,8.812,8.595,8.065c3.809-0.713,5.463-4.27,6.073-11.971
					c0.856-11.121,3.769-19.313,13.438-21.418c8.755-1.908,17.438,2.769,22.407,13.133c3.17-0.637,6.338-1.272,9.505-1.91
					c0.881,3.316,1.742,6.637,2.586,9.961c-2.942,0.564-5.884,1.127-8.826,1.689c0.768,3.702,1.022,6.815,0.966,9.463
					c-0.069,3.24-2.799,5.631-6.067,5.387l0,0c-3.381-0.253-6.042-3.186-5.888-6.488c0.117-2.479-0.053-5.488-0.958-9.013
					c-1.676-6.493-5.054-8.016-7.85-7.449c-3.31,0.665-4.45,4.555-5.532,13.548c-1.265,12.541-5.776,18.203-14.828,19.76
					c-8.98,1.531-18-3.225-22.771-13.772c-3.412,0.644-6.824,1.285-10.238,1.927
					C1702.281,1380.676,1701.483,1377.601,1700.667,1374.529z"/>
				<path style="fill:#50BFA5;" d="M1724.325,1303.539c-8.144-25.913-17.468-51.567-27.955-76.894
					c4.791-1.516,9.58-3.031,14.37-4.547c10.634,25.683,20.088,51.695,28.347,77.972
					C1734.166,1301.226,1729.246,1302.383,1724.325,1303.539z"/>
				<path style="fill:#50BFA5;" d="M1764.114,1516.553c-1.699-26.832-4.62-53.582-8.748-80.184
					c5.065-0.536,10.131-1.073,15.196-1.609c4.185,26.974,7.146,54.098,8.869,81.307
					C1774.326,1516.229,1769.221,1516.391,1764.114,1516.553z"/>
			</g>
		</g>
		<g>
			<path style="fill:#3C8F7C;" d="M1500.623,1448.486c69.307-94.535,118.306-202.35,144.415-317.764
				c50.541,14.34,101.081,28.678,151.623,43.019c-30.189,133.444-86.842,258.103-166.976,367.404
				C1586.665,1510.26,1543.645,1479.373,1500.623,1448.486z"/>
			<path style="fill:#96D9C9;" d="M1671.741,1146.563c31.489,9.194,62.977,18.39,94.465,27.585c-2.847,12.107,3.726,24.738,15,28.32
				c-28.735,110.556-75.994,214.542-139.999,308.049c-9.883-6.646-23.5-3.775-30.702,6.229
				c-26.997-19.076-53.995-38.152-80.992-57.229c6.627-9.207,3.778-22.19-6.099-28.83c56.207-82.113,97.707-173.429,122.94-270.514
				C1657.622,1163.754,1669.121,1157.706,1671.741,1146.563z"/>
			<g>
				<path style="fill:#50BFA5;" d="M1635.403,1388.853c-26.199-14.859-36.418-46.897-24.577-72.448
					c11.904-25.52,42.557-37.426,70.237-25.756c27.634,11.644,40.807,45.127,27.433,73.848
					C1695.154,1393.234,1661.551,1403.691,1635.403,1388.853z"/>
				<path style="fill:#3C8F7C;" d="M1620.504,1318.063c2.963,1.357,5.926,2.715,8.889,4.07c1.857-3.834,4.229-7.348,6.611-10.065
					c1.987-2.267,5.468-2.553,7.964-0.631c0.1,0.077,0.2,0.155,0.301,0.232c2.75,2.118,3.211,6.095,0.957,8.59
					c-2.294,2.54-4.452,5.632-6.008,9.237c-2.266,5.248-1.815,9.788,1.909,11.546c3.534,1.663,7.106-0.231,12.427-6.078
					c7.666-8.458,15.163-13.349,24.317-9.366c8.293,3.603,12.397,12.472,9.929,23.74c2.967,1.349,5.933,2.696,8.9,4.043
					c-1.365,3.189-2.749,6.37-4.149,9.544c-2.737-1.274-5.475-2.547-8.212-3.821c-1.698,3.434-3.443,6.091-5.149,8.191
					c-2.087,2.569-5.798,2.893-8.295,0.776l0,0c-2.58-2.188-2.899-6.115-0.703-8.685c1.648-1.929,3.396-4.453,4.873-7.825
					c2.713-6.215,0.928-9.426-1.692-10.611c-3.099-1.408-6.462,1.057-12.976,7.668c-8.888,9.361-16.093,11.275-24.405,7.212
					c-8.239-4.039-12.568-13.168-9.822-24.469c-3.169-1.485-6.337-2.973-9.505-4.46
					C1617.959,1323.963,1619.24,1321.016,1620.504,1318.063z"/>
				<path style="fill:#50BFA5;" d="M1684.183,1274.757c9.644-25.662,18.171-51.808,25.549-78.373
					c4.833,1.592,9.665,3.184,14.497,4.776c-7.483,26.937-16.128,53.448-25.907,79.469
					C1693.608,1278.672,1688.896,1276.714,1684.183,1274.757z"/>
				<path style="fill:#50BFA5;" d="M1582.891,1469.754c15.444-22.617,29.847-45.886,43.178-69.743
					c4.442,2.542,8.884,5.085,13.325,7.627c-13.518,24.19-28.122,47.785-43.782,70.719
					C1591.371,1475.489,1587.131,1472.622,1582.891,1469.754z"/>
			</g>
		</g>
		<path style="fill:#E3BE91;" d="M1911.624,1459.79c-24.398,1.113-70.091-7.348-94.657-33.675
			c-27.801-29.793-57.096-40.041-83.437-57.247c-11.245-7.346-13.885-14.965-9.486-22.62c2.515-4.377,9.029-6.12,20.955-2.402
			c22.416,6.986,71.466,29.192,102.596,18.194c28.247-9.981,83.196,5.338,90.671,35.668
			C1945.407,1426.686,1945.498,1458.244,1911.624,1459.79z"/>
		<path style="fill:#F7D6AF;" d="M1742.861,1359.496c-6.349,10.563-18.451,2.451-19.352-5.219c-0.9-7.671,5.219-11.018,9.234-11.018
			C1738.959,1343.26,1751.18,1345.657,1742.861,1359.496z"/>
		<path style="fill:#F47458;" d="M1957.922,1516.553c0,0,18.64-77.369,55.355-131.92C2024.544,1389.495,2239,1484.69,2239,1484.69
			v179.333L1957.922,1516.553z"/>
	</g>
	<g>
		<path style="fill:#855840;" d="M1780.29,894.771c0.54,5.977,13.02,51.525,19.934,53.497c7.432,2.121,15.593-9.027,16.004-23.511
			c6.21,32.305,7.009,34.866,13.251,33.319c9.578-2.373,12.872-14.587,12.71-19.398c4.374,19.86,7.75,31.19,11.529,30.611
			c9.254-1.419,23.55-14.354,17.255-31.853C1864.677,919.938,1779.256,883.339,1780.29,894.771z"/>
		<path style="fill:#A36D4F;" d="M1956.973,959.592c-19.909-2.015-33.521,11.237-85.81-5.9
			c-52.289-17.137-65.546-66.285-93.079-79.82c-26.767-13.159-35.661,37.048-66.116,23.722c-11.826-5.175-7.083-12.523-0.513-19.858
			c6.57-7.335,28.416-36.874,39.679-46.706c11.263-9.831,79.493-27.632,111.628-33.378c40.798-7.295,92.005,77.778,125.631,90.117
			c27.746,10.181,58.45,15.313,58.45,15.313s-28.122,56.719-25.669,78.941C2000.827,971.963,1971.309,961.044,1956.973,959.592z"/>
		<path style="fill:#855840;" d="M1836.979,849.557c-28.824,14.017-58.016,13.85-65.497,13.954c0,0,0.048,0.032,0.121,0.081
			c-2.452-0.659-4.19-1.749-6.587-2.073c-22.572-3.045-28.542,17.515-21.384,27.155c10.642-10.223,20.81-19.987,34.452-14.802
			c1.485,0.565,2.941,1.268,4.376,2.082c2.329,1.193,4.6,2.684,6.83,4.456c7.295,2.412,9.695,1.687,8.884-0.493
			c8.649,4.909,18.319,9.971,27.279,13.704c24.351,10.146,55.771-3.336,60.743-8.797
			C1889.102,881.63,1860.372,879.105,1836.979,849.557z"/>
		<g>
			<path style="fill:#3C8F7C;" d="M1803.352,961.502c-113.467-38.493-232.529-54.277-350.914-46.521
				c-3.811-51.296-7.621-102.595-11.431-153.892c136.88-8.968,274.543,9.282,405.735,53.789
				C1832.279,863.753,1817.816,912.628,1803.352,961.502z"/>
			<path style="fill:#96D9C9;" d="M1458.258,885.573c-2.126-32.031-4.253-64.064-6.38-96.097
				c12.458-0.713,22.167-10.386,21.68-21.937c114.684-3.943,229.518,11.28,340.186,45.099c-2.896,11.103,4.515,23.045,16.476,26.995
				c-8.786,30.585-17.572,61.172-26.358,91.757c-11.008-3.634-22.333,2.654-25.227,13.748
				c-97.184-29.698-198.025-43.067-298.735-39.604C1479.413,893.992,1469.722,884.918,1458.258,885.573z"/>
			<g>
				<path style="fill:#50BFA5;" d="M1700.423,852.004c-5.064,28.662-31.913,47.161-60.208,43.206
					c-28.287-4.024-50.127-29.387-48.596-58.548c1.522-29.107,28.724-50.775,60.552-46.27
					C1684.002,794.864,1705.485,823.396,1700.423,852.004z"/>
				<path style="fill:#3C8F7C;" d="M1638.454,885.691c0.267-3.151,0.533-6.303,0.798-9.454c-4.272-0.668-8.42-1.909-11.816-3.38
					c-2.833-1.227-4.303-4.404-3.34-7.276c0.038-0.116,0.077-0.231,0.116-0.346c1.06-3.165,4.672-4.706,7.813-3.292
					c3.197,1.438,6.871,2.595,10.824,3.046c5.755,0.656,9.902-1.031,10.286-5.008c0.359-3.771-2.666-6.584-10.04-9.934
					c-10.656-4.815-17.872-10.467-17.25-20.146c0.559-8.765,7.553-15.079,19.083-15.912c0.257-3.152,0.513-6.305,0.768-9.457
					c3.492,0.389,6.984,0.796,10.474,1.221c-0.264,2.917-0.528,5.834-0.794,8.751c3.839,0.632,6.959,1.524,9.537,2.535
					c3.154,1.236,4.738,4.619,3.593,7.546l0,0c-1.186,3.025-4.799,4.419-7.99,3.081c-2.395-1.005-5.391-1.938-9.095-2.378
					c-6.825-0.805-9.254,1.761-9.475,4.543c-0.268,3.293,3.226,5.753,11.736,10.006c11.933,5.706,16.228,11.915,15.239,20.827
					c-0.993,8.836-8.154,15.434-19.812,16.017c-0.317,3.38-0.635,6.76-0.954,10.139
					C1644.923,886.427,1641.688,886.05,1638.454,885.691z"/>
				<path style="fill:#50BFA5;" d="M1575.481,838.176c-27.644-1.868-55.361-2.555-83.082-2.05
					c-0.155-4.966-0.311-9.933-0.465-14.899c28.108-0.51,56.214,0.186,84.245,2.08
					C1575.947,828.263,1575.715,833.22,1575.481,838.176z"/>
				<path style="fill:#50BFA5;" d="M1795.186,878.583c-26.756-8.145-53.769-15.133-80.973-20.956
					c0.881-4.866,1.761-9.731,2.642-14.597c27.584,5.904,54.976,12.99,82.105,21.249
					C1797.702,869.047,1796.444,873.814,1795.186,878.583z"/>
			</g>
		</g>
		<g>
			<path style="fill:#3C8F7C;" d="M1804.661,936.047c-113.177-12.498-227.684-1.462-337.49,32.525
				c-12.437-49.495-24.874-98.988-37.312-148.482c126.961-39.296,259.357-52.056,390.214-37.606
				C1814.937,833.671,1809.799,884.858,1804.661,936.047z"/>
			<path style="fill:#96D9C9;" d="M1467.557,938.414c-7.529-30.962-15.059-61.925-22.588-92.887
				c11.572-3.475,19.018-15.131,16.565-26.358c106.99-29.421,217.432-40.064,327.173-31.531c-0.802,11.54,8.219,21.61,20.131,22.822
				c-2.966,31.974-5.932,63.948-8.899,95.922c-10.962-1.114-20.509,7.58-21.309,19.113c-96.37-7.494-193.354,1.853-287.308,27.689
				C1488.872,941.962,1478.206,935.217,1467.557,938.414z"/>
			<g>
				<path style="fill:#50BFA5;" d="M1689.113,851.517c0.197,29.257-21.814,53.393-49.063,55.817
					c-27.253,2.354-52.138-17.674-55.736-46.632c-3.6-28.905,18.197-56.229,48.856-58.898
					C1663.828,799.099,1688.926,822.313,1689.113,851.517z"/>
				<path style="fill:#3C8F7C;" d="M1636.753,898.383c-0.293-3.152-0.588-6.304-0.883-9.456c-4.128,0.296-8.235,0.003-11.679-0.684
					c-2.872-0.573-4.8-3.365-4.393-6.397c0.017-0.121,0.033-0.244,0.05-0.365c0.449-3.341,3.574-5.659,6.767-4.971
					c3.25,0.699,6.898,1.017,10.688,0.577c5.517-0.638,9.119-3.218,8.793-7.206c-0.315-3.781-3.641-5.868-11.142-7.512
					c-10.836-2.351-18.588-6.29-19.675-15.927c-0.988-8.728,4.486-16.482,15.167-19.869c-0.303-3.151-0.606-6.301-0.911-9.452
					c3.346-0.397,6.694-0.775,10.045-1.135c0.256,2.922,0.511,5.843,0.766,8.766c3.713-0.235,6.796-0.056,9.391,0.361
					c3.175,0.511,5.247,3.479,4.677,6.605l0,0c-0.592,3.234-3.741,5.406-6.97,4.803c-2.422-0.452-5.394-0.7-8.949-0.307
					c-6.547,0.73-8.384,3.789-8.111,6.57c0.317,3.291,4.022,4.927,12.746,7.205c12.189,2.941,17.294,8.079,17.905,17.044
					c0.595,8.894-4.989,16.964-15.833,20.132c0.286,3.388,0.571,6.776,0.855,10.164
					C1642.954,897.664,1639.853,898.015,1636.753,898.383z"/>
				<path style="fill:#50BFA5;" d="M1569.425,865.782c-26.276,4.325-52.417,9.827-78.355,16.498
					c-1.003-4.839-2.007-9.678-3.01-14.518c26.302-6.764,52.809-12.342,79.453-16.729
					C1568.15,855.95,1568.787,860.866,1569.425,865.782z"/>
				<path style="fill:#50BFA5;" d="M1782.672,856.489c-26.525-2.033-53.095-2.873-79.64-2.526
					c-0.014-4.971-0.028-9.942-0.042-14.914c26.917-0.352,53.858,0.5,80.756,2.561
					C1783.388,846.569,1783.03,851.529,1782.672,856.489z"/>
			</g>
		</g>
		<path style="fill:#A36D4F;" d="M1937.289,960.597c-24.829,9.528-77.191,3.698-105.309-24.164
			c-28.117-27.861-48.687-28.291-77.363-38.86c-10.658-3.928-13.923-12.092-11.249-22.529c2.434-9.5,8.206-13.365,21.695-12.346
			c22.743,1.719,63.205,24.306,94.691,9.412c26.307-12.444,85.706-2.827,96.308,25.604
			C1966.191,924.878,1968.042,948.796,1937.289,960.597z"/>
		<path style="fill:#4F4F4F;" d="M1745.332,877.005c2.39-12.518,7.439-11.152,14.229-9.483c6.574,1.616,10.963,5.989,8.574,14.356
			c-2.017,7.06-6.122,10.091-13.95,8.629C1746.358,889.046,1743.322,887.533,1745.332,877.005z"/>
		<path style="fill:#FBE7C3;" d="M2016.938,1008.695c-4.721-4.275-17.447-10.902-29.123-14.361
			c-5.377-18.139,28.123-103.411,41.123-113.317c11.96,4.662,25.5,11.584,25.5,11.584L2016.938,1008.695z"/>
		<path style="fill:#86B1F2;" d="M1999.569,1012.195c3.368-30.173,29.368-116.454,47.89-131.178
			c141.188,47.188,191.541,62.2,191.541,62.2v158.979C2239,1102.195,2090.324,1048.203,1999.569,1012.195z"/>
	</g>
</g>
</svg>
